<svg width="70" height="70" viewBox="0 0 70 70" fill="none" xmlns="http://www.w3.org/2000/svg">
<circle cx="35" cy="35" r="35" fill="#FF7F5C"/>
<path d="M47.4 29.8V27.4H43.9234C43.6484 26.8203 43.1797 26.3515 42.6 26.0765V22.6H40.2V25.8H36.2V22.6H33.8V25.8H29.8V22.6H27.4V26.0719C26.8172 26.3484 26.3484 26.8172 26.0719 27.4H22.6V29.8H25.8V33.8H22.6V36.2H25.8V40.2H22.6V42.6H26.0719C26.3485 43.1828 26.8172 43.6515 27.4 43.9281V47.4H29.8V44.2H33.8V47.4H36.2V44.2H40.2V47.4H42.6V43.9234C43.1797 43.6484 43.6484 43.1797 43.9234 42.6H47.4V40.2H44.2V36.2H47.4V33.8H44.2V29.8H47.4ZM41.8 33.8V41.4C41.8 41.5062 41.7578 41.6078 41.6828 41.6828C41.6078 41.7578 41.5063 41.8 41.4 41.8H28.6C28.3797 41.8 28.2 41.6203 28.2 41.4V28.6C28.2 28.3797 28.3797 28.2 28.6 28.2H41.4C41.5063 28.2 41.6078 28.2422 41.6828 28.3172C41.7578 28.3922 41.8 28.4937 41.8 28.6V33.8Z" fill="white"/>
</svg>
