<svg width="70" height="70" viewBox="0 0 70 70" fill="none" xmlns="http://www.w3.org/2000/svg">
<circle cx="35" cy="35" r="35" fill="#3734A9"/>
<path d="M27 42.4796C27.1891 42.6687 27.2938 42.9265 27.2922 43.1937C27.2906 43.4609 27.1813 43.7156 26.9906 43.903C26.7984 44.089 26.5406 44.1905 26.2734 44.1859C26.0062 44.1812 25.7515 44.0702 25.5687 43.8765C24.1641 42.4406 23.1015 40.7046 22.4641 38.8001C22.3781 38.547 22.3953 38.2704 22.5156 38.0313C22.6344 37.7907 22.8438 37.6094 23.0984 37.5266C23.3516 37.4423 23.6297 37.4641 23.8672 37.586C24.1047 37.7095 24.2844 37.9204 24.3641 38.1767C24.9063 39.7907 25.8078 41.2626 27 42.4799L27 42.4796ZM46.9 37.5232C46.6484 37.4388 46.3734 37.4591 46.1359 37.5779C45.8984 37.6982 45.7187 37.9076 45.6359 38.1591C45.0953 39.781 44.1937 41.2576 43 42.4795C42.8109 42.6686 42.7062 42.9264 42.7078 43.1936C42.7094 43.4608 42.8187 43.7155 43.0094 43.903C43.2016 44.0889 43.4594 44.1905 43.7266 44.1858C43.9938 44.1811 44.2485 44.0702 44.4313 43.8764C45.8375 42.4405 46.8985 40.7045 47.5359 38.8C47.6234 38.5469 47.6047 38.2688 47.4859 38.0281C47.3656 37.7891 47.1547 37.6062 46.9 37.5234L46.9 37.5232ZM32.5 23.764C34.1594 23.3859 35.8812 23.3859 37.5408 23.764C37.8017 23.8343 38.0814 23.7937 38.3127 23.6546C38.5455 23.514 38.7111 23.2859 38.772 23.0218C38.833 22.7578 38.783 22.4796 38.6361 22.2531C38.4877 22.0249 38.2549 21.8671 37.9877 21.8155C36.0361 21.3702 34.008 21.3702 32.0565 21.8155C31.5689 21.9749 31.2815 22.478 31.3908 22.9796C31.5002 23.4812 31.9705 23.8171 32.4799 23.7593L32.5 23.764ZM22.9688 17.9516C25.2719 17.9407 27.15 19.7969 27.1688 22.1C27.1688 24.4203 25.2876 26.3 22.9688 26.3C20.6485 26.3 18.7688 24.4203 18.7688 22.1C18.786 19.7969 20.6641 17.9408 22.9688 17.9516ZM22.9688 19.9516C22.1047 19.9735 21.3376 20.5094 21.0204 21.3141C20.7047 22.1172 20.9016 23.0328 21.5188 23.636C22.1376 24.2406 23.0579 24.4141 23.8532 24.0797C24.65 23.7438 25.1672 22.9641 25.1688 22.1C25.1532 20.9 24.1688 19.9391 22.9688 19.9516ZM23.9766 30.7108L25.9157 28.7999H26.5235C26.9985 28.7936 27.4563 28.9764 27.7954 29.3061C28.136 29.6374 28.3297 30.0889 28.336 30.5639V32.8561C28.336 33.4077 28.7844 33.8561 29.336 33.8561C29.8891 33.8561 30.336 33.4077 30.336 32.8561V30.5639C30.3204 28.4733 28.6157 26.7889 26.5235 26.7998H25.5079C25.2454 26.7998 24.9954 26.9045 24.8079 27.0873L22.9672 28.8951L21.1266 27.0873H21.1282C20.9422 26.9045 20.6906 26.7998 20.4282 26.7998H19.4C17.3141 26.7952 15.6157 28.478 15.6 30.5639V32.8561C15.6 33.4077 16.0485 33.8561 16.6 33.8561C17.1516 33.8561 17.6 33.4077 17.6 32.8561V30.5639C17.6125 29.5811 18.4172 28.7936 19.4 28.7998H20.0078L21.9516 30.7123C22.5157 31.2623 23.4157 31.2608 23.9766 30.7076L23.9766 30.7108ZM51.2314 22.0952C51.2314 24.4155 49.3517 26.2952 47.0314 26.2952C44.7126 26.2952 42.8314 24.4155 42.8314 22.0952C42.8314 19.7764 44.7126 17.8952 47.0314 17.8952C49.3517 17.8952 51.2314 19.7764 51.2314 22.0952ZM49.2314 22.0952C49.2533 21.2014 48.7314 20.3843 47.9111 20.0264C47.0908 19.6702 46.1361 19.8452 45.4954 20.4702C44.8564 21.0952 44.6579 22.0452 44.9954 22.8733C45.3329 23.7014 46.1376 24.2436 47.0314 24.2436C48.2329 24.2577 49.2173 23.2968 49.2314 22.0952H49.2314ZM50.6002 26.8H49.572C49.3095 26.8 49.058 26.9047 48.872 27.0875L47.0314 28.8953L45.1908 27.0875H45.1923C45.0048 26.9047 44.7548 26.8 44.4923 26.8H43.4767C41.3845 26.7891 39.6798 28.4734 39.6642 30.5641V32.8563C39.6642 33.4078 40.1111 33.8563 40.6642 33.8563C41.2158 33.8563 41.6642 33.4078 41.6642 32.8563V30.5641C41.6705 30.0891 41.8642 29.6375 42.2048 29.3063C42.5439 28.9766 43.0017 28.7938 43.4767 28.8H44.0845L46.0283 30.7078C46.5876 31.2438 47.4689 31.2438 48.0283 30.7078L49.9798 28.8H50.6002C51.0752 28.7938 51.5314 28.9766 51.872 29.3063C52.2111 29.6375 52.4064 30.0891 52.4127 30.5641V32.8563C52.4127 33.4078 52.8596 33.8563 53.4127 33.8563C53.9642 33.8563 54.4127 33.4078 54.4127 32.8563V30.5641C54.3971 28.4734 52.6908 26.7891 50.6002 26.8H50.6002ZM30.8002 42.292C30.7798 40.5889 31.7892 39.0404 33.3564 38.3748C34.9236 37.7076 36.7392 38.0545 37.9516 39.2514C39.1625 40.4482 39.5313 42.2592 38.8844 43.8342C38.2375 45.4107 36.7032 46.4404 35 46.4404C32.6969 46.4513 30.8172 44.5951 30.8 42.292H30.8002ZM32.8002 42.292C32.7767 43.1858 33.2986 44.0061 34.1189 44.3639C34.9392 44.7217 35.8939 44.5483 36.5346 43.9232C37.1752 43.2982 37.3752 42.3482 37.0377 41.5201C36.7002 40.6904 35.8955 40.1482 35.0002 40.1482C33.8017 40.1342 32.8174 41.0936 32.8002 42.292V42.292ZM38.5566 46.9952H37.5409C37.2784 46.9968 37.0268 47.0999 36.8409 47.2843L35.0003 49.0921L33.1596 47.2843C32.9737 47.0999 32.7221 46.9968 32.4596 46.9952H31.444C29.3534 46.9843 27.6471 48.6686 27.6315 50.7593V53.0515C27.6315 53.6046 28.08 54.0515 28.6315 54.0515C29.1846 54.0515 29.6315 53.6046 29.6315 53.0515V50.7593C29.6393 50.2858 29.8331 49.8327 30.1722 49.503C30.5128 49.1718 30.9706 48.989 31.444 48.9952H32.0518L33.9956 50.9077C34.555 51.4436 35.4378 51.4436 35.9956 50.9077L37.9394 48.9999H38.5487C39.0222 48.9937 39.48 49.1765 39.819 49.5062C40.1597 49.8374 40.3534 50.289 40.3597 50.764V53.0562C40.3597 53.6077 40.8081 54.0562 41.3597 54.0562C41.9128 54.0562 42.3597 53.6077 42.3597 53.0562V50.7593C42.3456 48.6718 40.644 46.989 38.5566 46.9952V46.9952Z" fill="white"/>
</svg>
