<svg width="70" height="70" viewBox="0 0 70 70" fill="none" xmlns="http://www.w3.org/2000/svg">
<circle cx="35" cy="35" r="35" fill="#00E1F0"/>
<path fill-rule="evenodd" clip-rule="evenodd" d="M29.5875 18.3083C29.6843 18.3116 29.7811 18.3297 29.8713 18.3658C29.9615 18.4002 30.0452 18.4527 30.119 18.5151C30.1928 18.5791 30.2536 18.6562 30.3011 18.7398C30.3487 18.8251 30.3799 18.917 30.3963 19.0138C30.411 19.109 30.411 19.2074 30.393 19.3026C30.375 19.3977 30.3405 19.4896 30.2913 19.5733C30.1928 19.7406 30.0353 19.8719 29.8516 19.9375C25.1774 21.6979 21.8485 26.2115 21.8485 31.5123C21.8485 35.1036 23.3775 38.3276 25.8171 40.5897C25.9172 40.6832 25.9943 40.8014 26.0403 40.931C26.0846 41.0606 26.0977 41.2 26.0764 41.3362L25.0099 48.1663L38.1072 51.5853L38.7356 46.7717C38.7504 46.6568 38.7897 46.5436 38.8504 46.4436C38.9111 46.3435 38.9932 46.2565 39.0883 46.1909C39.1835 46.1236 39.2934 46.0777 39.4082 46.0564C39.5231 46.0334 39.6412 46.0367 39.7561 46.0613L43.6722 46.9538L44.3433 42.8555C44.3597 42.7587 44.3925 42.6636 44.4417 42.5783C44.4909 42.4929 44.5533 42.4158 44.6287 42.3518C44.7042 42.2879 44.7911 42.237 44.883 42.2042C44.9749 42.1697 45.075 42.1533 45.1734 42.1533H47.9608L46.3842 34.6656C46.3711 34.5999 46.3645 34.531 46.3661 34.4638L46.5105 30.1605C46.0167 25.6177 43.0619 21.8146 39.0081 20.1082C38.9047 20.0672 38.8112 20.0048 38.7324 19.9261C38.6537 19.8473 38.5897 19.7538 38.547 19.6521C38.5044 19.5504 38.4831 19.4388 38.4831 19.3272C38.4831 19.2157 38.506 19.1058 38.5487 19.0024C38.5913 18.9007 38.6553 18.8072 38.7341 18.7284C38.8128 18.6513 38.908 18.589 39.0113 18.5479C39.1147 18.5069 39.2263 18.4872 39.3362 18.4889C39.4477 18.4905 39.5577 18.5151 39.6594 18.5594C44.2844 20.5068 47.6461 24.8544 48.1875 30.0406C48.1908 30.0783 48.1924 30.1177 48.1908 30.1554L48.0464 34.4176L49.815 42.8192C49.8412 42.9406 49.8379 43.0686 49.8101 43.19C49.7805 43.3114 49.7247 43.4246 49.646 43.5214C49.5672 43.6182 49.4672 43.697 49.3556 43.7511C49.2424 43.8053 49.1194 43.8331 48.9947 43.8331H45.8857L45.1868 48.1104C45.1687 48.2236 45.1261 48.3319 45.0654 48.4287C45.003 48.5255 44.9226 48.6075 44.8275 48.6715C44.7323 48.7355 44.624 48.7798 44.5125 48.8011C44.4009 48.8224 44.2828 48.8192 44.1712 48.7946L40.283 47.9086L39.6513 52.7516C39.6365 52.8698 39.5955 52.983 39.5332 53.0847C39.4708 53.1864 39.3872 53.2733 39.2887 53.339C39.1903 53.4046 39.0771 53.4505 38.9606 53.4702C38.8441 53.4899 38.7227 53.485 38.6079 53.4555L23.8537 49.6033C23.7536 49.577 23.6601 49.5327 23.5764 49.472C23.4928 49.4113 23.4206 49.3358 23.3648 49.2505C23.309 49.1652 23.268 49.0684 23.2467 48.9667C23.2253 48.8666 23.2221 48.7616 23.2385 48.6599L24.3557 41.5115C21.7783 38.9636 20.1754 35.4215 20.1754 31.5151C20.1754 25.5103 23.9522 20.3704 29.2663 18.3687C29.3713 18.3276 29.4829 18.308 29.5945 18.3112L29.5875 18.3083Z" fill="white"/>
<path fill-rule="evenodd" clip-rule="evenodd" d="M36.6191 16.52C36.729 16.52 36.8389 16.5413 36.9407 16.584C37.0424 16.6267 37.1359 16.689 37.213 16.7661C37.2901 16.8432 37.3525 16.9367 37.3951 17.0385C37.4378 17.1402 37.4591 17.2501 37.4591 17.36V29.7416C39.1801 30.7063 40.3482 32.5471 40.3482 34.6506C40.3482 36.4257 39.5181 38.0139 38.2253 39.0459L40.1842 42.437C40.2416 42.5322 40.2777 42.6388 40.2941 42.7488C40.3089 42.8587 40.3039 42.9719 40.2744 43.0785C40.2465 43.1852 40.1973 43.2869 40.13 43.3755C40.0628 43.4641 39.9775 43.5379 39.8823 43.5937C39.7872 43.6495 39.6789 43.6856 39.5689 43.6987C39.459 43.7134 39.3458 43.7052 39.2392 43.6757C39.1325 43.6462 39.0308 43.5953 38.9439 43.5281C38.8569 43.4592 38.7831 43.3738 38.7289 43.277L36.7717 39.8892C36.1351 40.1402 35.4427 40.278 34.7192 40.278C31.6201 40.278 29.0921 37.7498 29.0921 34.6508C29.0921 32.5475 30.2602 30.7051 31.9812 29.7419V17.3603C31.9812 17.2503 32.0026 17.1404 32.0452 17.0387C32.0879 16.937 32.1502 16.8435 32.2273 16.7664C32.3044 16.6892 32.3979 16.6269 32.4997 16.5842C32.6014 16.5416 32.7113 16.5203 32.8212 16.5203L36.6191 16.52ZM35.7791 18.2H33.6627V29.1284C34.0056 29.0628 34.36 29.0283 34.7209 29.0283C35.0818 29.0283 35.4362 29.0628 35.7791 29.1284L35.7791 18.2ZM34.7209 30.708C32.529 30.708 30.7736 32.4635 30.7736 34.6521C30.7736 36.844 32.529 38.5994 34.7209 38.5994C36.9078 38.5994 38.6682 36.8439 38.6682 34.6521C38.6682 32.4652 36.9078 30.708 34.7209 30.708Z" fill="white"/>
</svg>
