<svg width="1270" height="53" viewBox="0 0 1270 53" fill="none" xmlns="http://www.w3.org/2000/svg">
<rect width="1270" height="53" fill="#none"/>
<path d="M25.2721 37.7499V32.1895H19.2168C17.5701 32.1895 16.0448 33.0539 15.2014 34.4652L13.2383 37.7499H25.2721Z" fill="#63D2F9"/>
<path d="M6 16.3887V21.9491H21.949L25.2722 16.3887H6Z" fill="#4E5EE4"/>
<path d="M13.633 25.0789L6.01758 37.7499H12.5058L21.6125 22.5909H18.0297C16.2276 22.5909 14.558 23.5357 13.633 25.0789Z" fill="#63B0F9"/>
<path d="M39.0764 32.4131C35.8138 32.4131 33.4131 30.0416 33.4131 26.8592C33.4131 23.7075 35.8292 21.3054 39.0918 21.3054C42.3543 21.3054 44.7704 23.7381 44.7704 26.8592C44.7704 30.011 42.3389 32.4131 39.0764 32.4131ZM39.0918 30.47C41.1539 30.47 42.6313 28.94 42.6313 26.8592C42.6313 24.8091 41.1539 23.2485 39.0918 23.2485C37.0142 23.2485 35.5368 24.8091 35.5368 26.8592C35.5368 28.94 37.0142 30.47 39.0918 30.47ZM46.9552 35.7332V24.1665H48.925V25.1916H49.0327C49.2482 24.855 49.9869 23.9676 51.4643 23.9676C53.7265 23.9676 55.2808 25.6506 55.2808 28.1597C55.2808 30.6689 53.7419 32.4131 51.5258 32.4131C50.0946 32.4131 49.3251 31.6175 49.0635 31.1738H48.9558V35.7332H46.9552ZM51.0795 30.6077C52.3722 30.6077 53.2494 29.6132 53.2494 28.1903C53.2494 26.7216 52.3722 25.773 51.0641 25.773C49.7406 25.773 48.9096 26.8287 48.9096 28.1903C48.9096 29.6897 49.833 30.6077 51.0795 30.6077ZM61.0051 32.4131C58.6197 32.4131 56.9269 30.6383 56.9269 28.2362C56.9269 25.6965 58.6351 23.9676 61.0051 23.9676C63.6059 23.9676 65.0217 25.8801 65.0217 28.1444V28.7717H58.866C58.9275 29.9957 59.7739 30.8219 61.0667 30.8219C62.0516 30.8219 62.8057 30.3629 63.0827 29.705H64.9448C64.5447 31.3421 63.0981 32.4131 61.0051 32.4131ZM58.8968 27.3641H63.1134C63.0211 26.2779 62.1747 25.5588 61.0051 25.5588C59.8817 25.5588 59.0199 26.3544 58.8968 27.3641ZM67.1757 32.2142V24.1665H69.084V25.1457H69.1917C69.5149 24.549 70.3151 23.9676 71.4693 23.9676C73.2853 23.9676 74.3933 25.2375 74.3933 26.951V32.2142H72.3927V27.4712C72.3927 26.4921 71.7617 25.8342 70.8383 25.8342C69.8688 25.8342 69.1763 26.5992 69.1763 27.6089V32.2142H67.1757ZM76.3779 32.2142V30.3935L81.9797 23.3709V23.2638H76.578V21.5043H84.5343V23.3097L78.9326 30.3323V30.4547H84.5651V32.2142H76.3779ZM89.9816 32.4131C87.5962 32.4131 85.9034 30.6383 85.9034 28.2362C85.9034 25.6965 87.6116 23.9676 89.9816 23.9676C92.5824 23.9676 93.9982 25.8801 93.9982 28.1444V28.7717H87.8425C87.904 29.9957 88.7504 30.8219 90.0431 30.8219C91.0281 30.8219 91.7821 30.3629 92.0592 29.705H93.9213C93.5211 31.3421 92.0745 32.4131 89.9816 32.4131ZM87.8732 27.3641H92.0899C91.9976 26.2779 91.1512 25.5588 89.9816 25.5588C88.8582 25.5588 87.9964 26.3544 87.8732 27.3641ZM96.1522 35.7332V24.1665H98.122V25.1916H98.2297C98.4452 24.855 99.1839 23.9676 100.661 23.9676C102.923 23.9676 104.478 25.6506 104.478 28.1597C104.478 30.6689 102.939 32.4131 100.723 32.4131C99.2916 32.4131 98.5221 31.6175 98.2605 31.1738H98.1528V35.7332H96.1522ZM100.277 30.6077C101.569 30.6077 102.446 29.6132 102.446 28.1903C102.446 26.7216 101.569 25.773 100.261 25.773C98.9376 25.773 98.1066 26.8287 98.1066 28.1903C98.1066 29.6897 99.03 30.6077 100.277 30.6077ZM106.632 35.7332V24.1665H108.602V25.1916H108.709C108.925 24.855 109.663 23.9676 111.141 23.9676C113.403 23.9676 114.957 25.6506 114.957 28.1597C114.957 30.6689 113.418 32.4131 111.202 32.4131C109.771 32.4131 109.002 31.6175 108.74 31.1738H108.632V35.7332H106.632ZM110.756 30.6077C112.049 30.6077 112.926 29.6132 112.926 28.1903C112.926 26.7216 112.049 25.773 110.741 25.773C109.417 25.773 108.586 26.8287 108.586 28.1903C108.586 29.6897 109.51 30.6077 110.756 30.6077ZM120.682 32.4131C118.296 32.4131 116.604 30.6383 116.604 28.2362C116.604 25.6965 118.312 23.9676 120.682 23.9676C123.282 23.9676 124.698 25.8801 124.698 28.1444V28.7717H118.543C118.604 29.9957 119.451 30.8219 120.743 30.8219C121.728 30.8219 122.482 30.3629 122.759 29.705H124.621C124.221 31.3421 122.775 32.4131 120.682 32.4131ZM118.573 27.3641H122.79C122.698 26.2779 121.851 25.5588 120.682 25.5588C119.558 25.5588 118.696 26.3544 118.573 27.3641ZM128.822 32.2142C127.406 32.2142 126.606 31.3727 126.606 29.9498V20.7393H128.607V29.7662C128.607 30.2252 128.837 30.47 129.253 30.47H129.576V32.2142H128.822ZM132.5 23.0955C131.776 23.0955 131.268 22.6518 131.268 21.9327C131.268 21.2442 131.776 20.7852 132.5 20.7852C133.223 20.7852 133.731 21.2442 133.731 21.9327C133.731 22.6518 133.223 23.0955 132.5 23.0955ZM131.499 32.2142V24.1665H133.5V32.2142H131.499ZM135.931 32.2142V24.1665H137.839V25.1457H137.947C138.27 24.549 139.07 23.9676 140.224 23.9676C142.04 23.9676 143.148 25.2375 143.148 26.951V32.2142H141.148V27.4712C141.148 26.4921 140.517 25.8342 139.594 25.8342C138.624 25.8342 137.931 26.5992 137.931 27.6089V32.2142H135.931Z" fill="#282846"/>
<path d="M251.912 29.7542H260.974L256.182 22.0448L247.388 35.9838H243.385L254.082 19.2401C254.547 18.5635 255.323 18.1548 256.182 18.1548C257.014 18.1548 257.789 18.5494 258.24 19.2119L268.98 35.9838H264.977L263.088 32.869H253.913L251.912 29.7542ZM293.489 32.869V18.3239H290.093V34.2925C290.093 34.7295 290.262 35.1523 290.586 35.4764C290.91 35.8006 291.347 35.9838 291.826 35.9838H307.316L309.317 32.869H293.489ZM237.296 30.2616C240.594 30.2616 243.272 27.5979 243.272 24.2998C243.272 21.0018 240.594 18.3239 237.296 18.3239H222.437V35.9838H225.832V21.4387H237.071C238.649 21.4387 239.918 22.7213 239.918 24.2998C239.918 25.8784 238.649 27.1609 237.071 27.1609L227.495 27.1468L237.634 35.9838H242.567L235.746 30.2616H237.296ZM201.535 35.9838C196.66 35.9838 192.704 32.0375 192.704 27.1609C192.704 22.2844 196.66 18.3239 201.535 18.3239H211.8C216.677 18.3239 220.63 22.2844 220.63 27.1609C220.63 32.0375 216.677 35.9838 211.8 35.9838H201.535ZM211.572 32.869C214.73 32.869 217.288 30.318 217.288 27.1609C217.288 24.0039 214.73 21.4387 211.572 21.4387H201.762C198.605 21.4387 196.046 24.0039 196.046 27.1609C196.046 30.318 198.605 32.869 201.762 32.869H211.572ZM276.069 35.9838C271.192 35.9838 267.232 32.0375 267.232 27.1609C267.232 22.2844 271.192 18.3239 276.069 18.3239H288.26L286.273 21.4387H276.295C273.137 21.4387 270.572 24.0039 270.572 27.1609C270.572 30.318 273.137 32.869 276.295 32.869H288.542L286.541 35.9838H276.069ZM317.604 32.869C314.997 32.869 312.784 31.1214 312.108 28.7113H326.625L328.626 25.5965H312.108C312.784 23.2005 314.997 21.4387 317.604 21.4387H327.569L329.584 18.3239H317.379C312.502 18.3239 308.542 22.2844 308.542 27.1609C308.542 32.0375 312.502 35.9838 317.379 35.9838H327.851L329.852 32.869H317.604Z" fill="#EA1B22"/>
<path d="M515.385 22.7538C516.46 23.6237 515.322 24.9997 514.373 24.3038C513.202 23.5605 510.545 23.2125 510.213 24.8573C509.786 27.4512 516.666 25.9645 516.555 30.1716C516.445 34.189 510.624 34.2839 508.441 32.4808C507.92 32.0539 507.935 31.3579 508.22 30.9308C508.631 30.5197 509.09 30.3773 509.628 30.8201C510.925 31.7058 514.262 32.3701 514.499 30.1242C514.294 27.7833 507.714 29.191 508.204 24.6992C508.568 21.6308 513.202 21.0772 515.385 22.7538ZM505.009 23.3706V29.0961C505.009 35.0114 495.471 35.0114 495.471 29.0961V23.3706C495.471 21.9472 497.543 21.8839 497.543 23.3706V29.0961C497.543 32.2119 502.937 32.4018 502.937 29.0961V23.3706C502.937 21.9629 505.009 21.8522 505.009 23.3706ZM439.701 21.9314C442.469 22.0736 445.363 23.9874 445.363 27.736C445.363 31.4844 442.469 33.4298 439.701 33.4298C436.775 33.5564 433.738 31.6109 433.738 27.736C433.738 23.8451 436.775 21.9314 439.701 21.9314ZM453.636 22.3267C457.653 22.3267 458.475 27.7043 455.122 29.0486L457.226 31.6109C458.048 32.8289 456.404 33.9992 455.455 32.7972L453.066 29.3809H450.583V32.2436C450.583 33.6196 448.48 33.6671 448.48 32.2752V23.2916C448.48 22.7379 448.907 22.3267 449.429 22.3267H453.636ZM420.863 22.1845C421.322 22.1845 421.591 22.4533 421.86 22.7538L425.339 27.4512L428.946 22.5797C429.467 21.9314 430.749 22.1845 430.749 23.2757V32.1804C430.749 32.8762 430.306 33.2717 429.8 33.2717C429.23 33.2717 428.787 32.8762 428.787 32.1804V26.3283L426.162 29.6498C425.592 30.3456 424.881 30.3456 424.359 29.6498L422.002 26.3283V32.1804C422.002 32.8762 421.433 33.2717 420.863 33.2717C420.357 33.2717 419.914 32.8762 419.914 32.1804V23.2757C419.914 22.4533 420.61 22.1845 420.863 22.1845ZM465.103 22.1845C467.159 22.1845 469.01 23.5605 469.01 26.2018C469.01 28.7007 467.159 30.0926 465.103 30.0926H462.462V32.1804C462.462 32.8762 462.019 33.2717 461.449 33.2717C460.927 33.2717 460.374 32.8762 460.374 32.1804V23.2757C460.374 22.7538 460.785 22.1845 461.449 22.1845H465.103ZM480.208 22.3267C480.762 22.3267 481.189 22.7379 481.189 23.3074V32.2911C481.189 32.8446 480.762 33.2717 480.208 33.2717C479.639 33.2717 479.133 32.8446 479.133 32.2911V28.8272H473.976V32.2911C473.976 32.8446 473.565 33.2717 473.012 33.2717C472.3 33.2717 471.889 32.8446 471.889 32.2911V23.3074C471.889 22.7379 472.3 22.3267 473.012 22.3267C473.565 22.3267 473.976 22.7379 473.976 23.3074V26.7554H479.133V23.3074C479.133 22.7379 479.639 22.3267 480.208 22.3267ZM491.217 22.3267C492.672 22.3267 492.64 24.3828 491.217 24.3828H486.662V26.7554H490.647C492.055 26.7554 492.055 28.8272 490.647 28.8272H486.662V31.1997H491.486C492.925 31.1997 493.035 33.2717 491.486 33.2717H485.539C484.985 33.2717 484.558 32.8446 484.558 32.2911V23.3074C484.558 22.7379 484.985 22.3267 485.539 22.3267H491.217ZM439.527 23.9874C437.756 23.9874 435.826 25.237 435.826 27.736C435.826 30.2191 437.756 31.4844 439.527 31.4844C441.346 31.4844 443.291 30.2191 443.291 27.736C443.291 25.237 441.346 23.9874 439.527 23.9874ZM465.103 24.1773H462.462V28.1156H465.103C466.163 28.1156 467.001 27.1824 467.001 26.2018C467.001 25.0947 466.163 24.1773 465.103 24.1773ZM453.636 24.2405H450.583V27.5619H453.636C455.692 27.5619 455.818 24.2405 453.636 24.2405Z" fill="#3DB5E6"/>
<path d="M407.368 30.63C405.826 36.825 400.184 41.2325 393.539 41.2325C386.864 41.2325 381.271 36.5642 379.792 30.3436C381.57 30.3436 383.233 30.3517 384.005 30.3517C384.369 30.3517 384.439 30.358 384.46 30.3565C385.041 30.3279 385.769 30.1363 386.254 28.9583L388.099 24.1297L392.199 33.9999C392.567 34.7867 393.183 34.7309 393.55 34.7309H393.584C394.301 34.7309 394.612 34.48 394.884 33.961L399.515 24.2037L401.094 28.6011L401.191 28.814C401.525 29.5467 401.765 30.2703 402.591 30.3649C402.762 30.3844 404.74 30.3498 407.407 30.3498C407.407 30.3498 407.407 30.3669 407.368 30.63Z" fill="#3DB5E6"/>
<path d="M407.821 26.9812C407.821 27.0549 407.821 27.2403 407.819 27.2403H407.816H403.559L401.075 20.3021C400.854 19.7861 400.521 19.0125 399.553 19.0125C398.96 19.0125 398.424 19.502 398.12 20.3099L393.618 30.7393L389.284 20.3731C388.86 19.4525 388.566 19.0195 387.718 19.0195C387.142 19.0195 386.719 19.2317 386.258 20.3224L383.686 27.3434L379.412 27.3389C379.409 27.2321 379.408 27.1253 379.408 27.0185C379.408 19.2138 385.735 12.9061 393.54 12.9061C401.344 12.9061 407.821 19.1765 407.821 26.9812Z" fill="#D8292F"/>
<path d="M696.325 25.7924V28.6519H698.334V31.4889C698.34 31.7062 698.33 31.9382 698.3 32.1378L698.283 32.2346C698.28 32.2562 698.276 32.2785 698.271 32.3012L698.255 32.371C698.252 32.3829 698.248 32.3948 698.245 32.4069L698.222 32.4805C698.041 33.0029 697.497 33.6649 696.274 33.6649C694.972 33.6649 694.449 32.9049 694.306 32.371L694.289 32.3012L694.277 32.2346C694.241 32.0159 694.226 31.7425 694.226 31.4889V22.5281C694.226 22.2463 694.242 21.9409 694.293 21.6921L694.328 21.5409C694.33 21.5304 694.333 21.5198 694.336 21.509L694.355 21.4424C694.358 21.431 694.362 21.4195 694.366 21.4079L694.391 21.3367C694.577 20.8416 695.068 20.1822 696.264 20.1822C697.186 20.1822 697.683 20.5582 697.949 20.9469L697.996 21.0198C698.011 21.0441 698.025 21.0683 698.038 21.0925L698.075 21.1644L698.108 21.235L698.136 21.3038L698.16 21.3702L698.181 21.4338L698.198 21.4938L698.212 21.55L698.223 21.6016C698.229 21.6273 698.233 21.6546 698.238 21.6829L698.249 21.7707C698.251 21.7857 698.253 21.8008 698.254 21.816L698.266 21.9537L698.274 22.0857L698.281 22.2657L698.283 22.3579V23.446H703.221L703.222 22.7687L703.225 22.5264L703.224 22.3386L703.22 22.12L703.216 22.0023L703.207 21.8188L703.194 21.6308L703.183 21.5052C702.849 18.195 700.361 16.9215 697.334 16.6999L697.131 16.6866L696.927 16.6765C696.825 16.6721 696.722 16.6689 696.619 16.6668L696.411 16.664C696.377 16.6636 696.342 16.6636 696.307 16.6636L696.099 16.665C696.064 16.6655 696.03 16.6661 695.995 16.6668L695.789 16.6726L695.584 16.6813L695.381 16.6931L695.18 16.708C695.113 16.7135 695.046 16.7195 694.98 16.7261L694.782 16.7473C694.749 16.7512 694.716 16.7551 694.684 16.7592L694.489 16.7855C694.037 16.8506 693.601 16.9435 693.189 17.0676L693.014 17.1227C691.1 17.7504 689.71 19.0849 689.425 21.5052L689.395 21.7739L689.375 21.9819L689.356 22.2L689.34 22.4169C689.331 22.5587 689.326 22.6923 689.326 22.8028L689.326 31.1516L689.328 31.2552L689.332 31.4127L689.337 31.5231L689.344 31.641L689.352 31.7693L689.364 31.9105L689.386 32.1529L689.404 32.3389C689.681 35.4149 692.013 36.7832 694.865 37.1061L695.065 37.1269C695.4 37.1588 695.741 37.1768 696.086 37.1819L696.293 37.1835L696.502 37.1819C696.849 37.1768 697.192 37.1588 697.527 37.1269L697.728 37.1061C700.59 36.7832 702.906 35.4149 703.188 32.3389L703.211 32.0676L703.228 31.8381L703.243 31.581L703.252 31.3595L703.26 31.0458V25.7924H696.325ZM662.278 17.1911H657.319V31.6956C657.327 31.9484 657.319 32.2324 657.276 32.4406L657.261 32.5037L657.243 32.5709C657.237 32.5939 657.229 32.6175 657.221 32.6416L657.195 32.7151C657.008 33.2138 656.532 33.8645 655.392 33.8645C654.323 33.8645 653.835 33.2773 653.63 32.791L653.6 32.7151C653.596 32.7027 653.591 32.6903 653.587 32.678L653.563 32.6058L653.544 32.5368C653.541 32.5256 653.538 32.5146 653.536 32.5037L653.522 32.4406C653.473 32.2324 653.466 31.9484 653.473 31.6956V17.1911H648.515V31.2455L648.515 31.3585L648.516 31.556L648.523 31.8467L648.537 32.2001L648.546 32.3779L648.553 32.4723L648.559 32.5418C648.802 35.142 650.327 36.4955 652.482 37.0619L652.665 37.1079C653.066 37.2035 653.487 37.2732 653.925 37.3197L654.128 37.3396L654.334 37.3562L654.541 37.3697C654.646 37.3757 654.751 37.3804 654.857 37.3841L655.069 37.3899L655.284 37.3928C655.32 37.3932 655.356 37.3932 655.392 37.3932L655.608 37.3917C655.643 37.3913 655.679 37.3907 655.715 37.3899L655.928 37.3841C656.034 37.3804 656.139 37.3757 656.244 37.3697L656.452 37.3562L656.657 37.3396L656.861 37.3197C659.761 37.0118 661.936 35.6914 662.236 32.5418L662.24 32.5105L662.248 32.428L662.26 32.2634L662.271 32.0643L662.277 31.9203L662.283 31.6995L662.285 31.556L662.284 31.4212L662.281 31.2997C662.28 31.2808 662.279 31.2627 662.278 31.2455V17.1911ZM616.717 17.1911L614.244 32.5171L611.772 17.1911H603.773L603.349 36.7975H608.249L608.382 18.6472L611.753 36.7975H616.725L620.1 18.6472L620.233 36.7975H625.145L624.707 17.1911H616.717ZM587.103 17.1911L583.471 36.7975H588.767L591.504 18.6472L594.175 36.7975H599.435L595.818 17.1911H587.103ZM679.608 32.9766L674.99 17.1911H667.715V36.5931H672.528L672.248 20.3025L677.207 36.5931H684.185V17.1911H679.34L679.608 32.9766ZM635.087 22.2937C635 21.9065 635.025 21.4951 635.07 21.2801C635.083 21.2231 635.098 21.1655 635.116 21.1081L635.145 21.0221C635.34 20.4785 635.798 19.9679 636.847 19.9679C637.98 19.9679 638.644 20.6739 638.644 21.7333V22.9322H643.477V21.5656C643.477 18.4817 641.459 17.2954 639.302 16.8796L639.125 16.8472L638.947 16.818L638.769 16.7921L638.591 16.7692L638.413 16.7492L638.236 16.732C638.177 16.7268 638.118 16.7219 638.059 16.7175L637.884 16.7054L637.71 16.6957L637.537 16.6882L637.366 16.6828L637.197 16.6793L636.948 16.6775L636.838 16.6779L636.619 16.681C636.583 16.6818 636.546 16.6827 636.51 16.6837L636.295 16.6916C636.223 16.6948 636.152 16.6985 636.081 16.7028L635.869 16.7172C632.92 16.9428 630.619 18.1541 630.158 20.9946C630.022 21.8597 629.989 22.6275 630.205 23.6074C630.547 25.2175 631.888 26.3633 633.428 27.3243L633.666 27.4708C633.706 27.4949 633.746 27.519 633.786 27.543L634.028 27.6854L634.271 27.8256L634.515 27.9636L634.882 28.1671L635.845 28.6948L636.079 28.8245L636.309 28.9538L636.534 29.0829L636.754 29.212C637.803 29.8366 638.644 30.4699 638.947 31.2271C639.114 31.6769 639.077 32.244 638.997 32.6058L638.983 32.6641C638.963 32.7511 638.937 32.8382 638.906 32.9237L638.872 33.0087C638.649 33.529 638.163 33.9725 637.093 33.9725C635.873 33.9725 635.139 33.2711 635.139 32.214L635.137 30.3324H629.934V31.8281C629.934 35.3386 632.161 36.8636 634.951 37.3163L635.159 37.3479C635.298 37.3677 635.438 37.3849 635.579 37.3996L635.792 37.42C636.042 37.4416 636.294 37.4558 636.548 37.4633L636.766 37.4681C636.803 37.4687 636.839 37.4691 636.876 37.4693L636.985 37.4697C637.058 37.4697 637.131 37.4692 637.203 37.4682L637.42 37.4634C637.456 37.4624 637.491 37.4612 637.527 37.4599L637.741 37.4503C637.812 37.4466 637.882 37.4423 637.952 37.4375L638.162 37.4213C638.301 37.4094 638.439 37.3953 638.575 37.3788L638.778 37.3524L638.979 37.3225C639.045 37.3119 639.111 37.3008 639.177 37.289L639.372 37.252C641.733 36.7788 643.49 35.496 643.843 33.0294C643.892 32.6616 643.922 32.3218 643.938 32.0113L643.946 31.8085C643.948 31.7755 643.948 31.7428 643.949 31.7105L643.953 31.5208V31.34L643.95 31.1681L643.944 31.0051L643.936 30.8512C643.935 30.8262 643.933 30.8017 643.931 30.7776L643.921 30.6372L643.908 30.5061L643.895 30.3842L643.873 30.2188L643.851 30.0747L643.822 29.9158L643.809 29.8507C643.468 28.1434 641.973 26.9374 640.313 25.9447L640.075 25.8043L639.835 25.6667L639.594 25.5315L639.232 25.3331L638.752 25.0757L637.934 24.6406L637.598 24.4585C637.561 24.4383 637.524 24.4182 637.488 24.3982L637.273 24.278L637.063 24.1584C636.033 23.561 635.254 22.9744 635.087 22.2937ZM571.323 22.2456C571.234 21.8751 571.248 21.4852 571.294 21.2587L571.313 21.1739L571.334 21.09C571.498 20.5013 571.944 19.8944 573.098 19.8944C574.245 19.8944 574.92 20.6072 574.92 21.6751V22.8886H579.811V21.5112C579.811 18.5683 577.98 17.3324 575.934 16.849L575.756 16.8088C575.607 16.7769 575.457 16.7487 575.306 16.7241L575.126 16.6961L574.946 16.6713L574.766 16.6495L574.586 16.6305C574.526 16.6247 574.466 16.6193 574.407 16.6144L574.229 16.6008L574.052 16.5897L573.876 16.581L573.703 16.5744L573.531 16.5699L573.277 16.5664H573.193C573.12 16.5664 573.047 16.5669 572.974 16.568L572.757 16.5727C572.612 16.5768 572.469 16.5831 572.328 16.5916L572.116 16.6059C572.081 16.6086 572.046 16.6114 572.012 16.6143L571.803 16.6337C571.734 16.6407 571.666 16.6483 571.598 16.6564L571.394 16.6826C571.226 16.7059 571.06 16.7328 570.897 16.7635L570.703 16.8021L570.511 16.8445L570.323 16.8905C570.261 16.9065 570.199 16.9231 570.137 16.9403L569.955 16.9939C568.057 17.5774 566.689 18.801 566.344 20.9241C566.202 21.803 566.177 22.5762 566.383 23.5668C566.746 25.2788 568.224 26.471 569.879 27.4728L570.122 27.6181C570.163 27.6421 570.204 27.666 570.244 27.6898L570.49 27.8314L570.86 28.0399L571.353 28.3117L572.08 28.7099L572.433 28.9064L572.776 29.1023L572.998 29.2328C573.035 29.2546 573.071 29.2763 573.107 29.2981L573.32 29.4292C574.228 29.998 574.94 30.584 575.214 31.2709C575.394 31.7176 575.352 32.2846 575.267 32.6581L575.252 32.7185C575.231 32.8045 575.206 32.8906 575.174 32.9753L575.14 33.0594C574.911 33.5889 574.421 34.043 573.338 34.043C572.113 34.043 571.38 33.3295 571.38 32.2578L571.373 30.3711H566.112V31.8703C566.112 36.0786 569.285 37.4618 572.799 37.5657L573.019 37.5706L573.24 37.5722L573.458 37.5706C573.567 37.5691 573.675 37.5664 573.782 37.5624L573.996 37.553C574.102 37.5475 574.208 37.5407 574.313 37.5327L574.522 37.5151L574.728 37.4941C574.797 37.4866 574.865 37.4785 574.933 37.4698L575.135 37.4419C575.202 37.4321 575.268 37.4216 575.334 37.4106L575.531 37.3758C577.976 36.9179 579.799 35.6208 580.166 33.0838C580.216 32.7214 580.248 32.3861 580.266 32.0788L580.275 31.8781L580.281 31.6858C580.283 31.6231 580.283 31.5618 580.284 31.5019L580.283 31.3265L580.28 31.1597L580.274 31.0014L580.266 30.8518L580.256 30.711L580.244 30.5789L580.225 30.3974L580.205 30.236L580.177 30.0524L580.145 29.8744C579.806 28.1873 578.356 26.987 576.724 25.9997L576.484 25.8568C576.444 25.8332 576.404 25.8097 576.363 25.7863L576.121 25.6476L575.877 25.5114L575.633 25.3775L575.39 25.2459L574.315 24.6753L573.971 24.4911L573.748 24.3694L573.53 24.2484L573.319 24.1278C573.284 24.1077 573.25 24.0877 573.215 24.0676L573.014 23.9474C572.126 23.4065 571.474 22.8653 571.323 22.2456Z" fill="#1428A0"/>
<path d="M755.659 34.3181C754.63 34.3203 753.68 33.7689 753.172 32.8746C752.67 31.9859 752.7 30.8931 753.25 30.0333L758.372 21.989C758.906 21.1088 759.872 20.5839 760.901 20.615C761.929 20.6396 762.864 21.2161 763.348 22.1236C763.826 23.0266 763.766 24.1129 763.194 24.9606L758.075 33.0049C757.547 33.827 756.636 34.3224 755.659 34.3181Z" fill="#F62B54"/>
<path d="M764.446 34.3177C763.413 34.3177 762.462 33.7653 761.963 32.8775C761.463 31.9912 761.493 30.9012 762.041 30.0438L767.154 22.0179C767.68 21.1251 768.649 20.5879 769.685 20.6146C770.727 20.6374 771.671 21.2202 772.148 22.1319C772.623 23.0436 772.553 24.1365 771.964 24.9819L766.852 33.0078C766.326 33.8264 765.419 34.3203 764.446 34.3177Z" fill="#FFCC00"/>
<path d="M773.036 34.386C774.493 34.386 775.673 33.23 775.673 31.804C775.673 30.3781 774.493 29.2221 773.036 29.2221C771.579 29.2221 770.399 30.3781 770.399 31.804C770.399 33.23 771.579 34.386 773.036 34.386Z" fill="#00CA72"/>
<path d="M887.607 29.3706C888.404 29.3706 888.88 29.9372 888.88 30.8651V34.0451H889.962V30.7924C889.962 29.2144 889.219 28.2995 887.821 28.2995C887.274 28.2995 886.405 28.4492 885.888 29.4553C885.643 28.8507 885.085 28.4296 884.437 28.3591C884.236 28.3225 884.032 28.3104 883.829 28.3233C883.384 28.3591 882.592 28.6359 882.295 29.2632V28.4199H881.212V34.0451H882.295V31.0095C882.295 29.8286 883.068 29.3706 883.842 29.3706C884.567 29.3706 885.043 29.9252 885.043 30.8532V34.0451H886.12V31.0095C886.12 30.0696 886.684 29.3598 887.607 29.3706ZM877.237 33.1052C877.732 33.116 878.209 32.9185 878.555 32.5604C878.903 32.2022 879.087 31.7149 879.069 31.2146C879.069 30.0815 878.235 29.3706 877.237 29.3706C876.237 29.3706 875.405 30.0815 875.405 31.2146C875.385 31.7138 875.57 32.2 875.915 32.5571C876.26 32.9153 876.735 33.1139 877.228 33.1052H877.237ZM877.237 34.1601C875.654 34.1601 874.334 32.9912 874.334 31.2081C874.334 29.4249 875.654 28.2929 877.237 28.2929C878.819 28.2929 880.151 29.4249 880.151 31.2081C880.151 32.9912 878.812 34.1655 877.229 34.1655L877.237 34.1601ZM868.761 31.2081L868.75 31.2146C868.75 29.4314 870.105 28.2995 871.699 28.2929C872.508 28.2773 873.286 28.6054 873.84 29.1959L873.019 29.8949C872.667 29.5492 872.192 29.3585 871.699 29.3652C870.7 29.3652 869.832 30.0761 869.832 31.2081C869.832 31.9732 870.287 32.6624 870.984 32.9554C871.682 33.2484 872.485 33.0856 873.019 32.5452L873.852 33.2441C873.296 33.8407 872.514 34.1736 871.699 34.1601C870.117 34.1601 868.761 32.9912 868.761 31.2081ZM865.295 32.9652C865.293 32.7666 865.37 32.5752 865.508 32.4331C865.647 32.291 865.837 32.2099 866.035 32.2076C866.234 32.2099 866.424 32.291 866.562 32.4331C866.701 32.5752 866.778 32.7666 866.776 32.9652C866.756 33.3605 866.431 33.672 866.035 33.6761C865.64 33.672 865.315 33.3605 865.295 32.9652Z" fill="#333333"/>
<path d="M868.256 21.2694H864.402L861.701 28.2338L859.014 21.2694H855.16L859.845 32.2744L856.931 39.5503H860.757L868.256 21.2694ZM844.818 27.3906C844.818 29.1488 846.355 30.3057 847.864 30.3057C849.348 30.3057 850.806 29.2291 850.806 27.3895C850.806 25.5499 849.348 24.4722 847.864 24.4722C846.355 24.4722 844.818 25.6302 844.818 27.3895V27.3906ZM850.806 33.5356V32.1431C850.024 33.3261 848.201 33.7732 847.265 33.7732C844.168 33.7732 841.069 31.3313 841.069 27.3895C841.069 23.4487 844.167 21.0068 847.265 21.0068C848.046 21.0068 849.869 21.2673 850.806 22.6348V21.2738H854.398V33.5377L850.806 33.5367V33.5356ZM840.047 33.5356H836.455V32.0118C835.854 33.1405 834.399 33.7982 832.888 33.7982C829.764 33.7982 827.004 31.3031 827.004 27.4394C827.004 23.503 829.764 21.0046 832.888 21.0046C834.397 21.0046 835.857 21.6341 836.455 22.7639V14.5883H840.047V33.5356ZM836.376 27.3623C836.376 25.5238 835.049 24.4461 833.566 24.4461C832.029 24.4461 830.752 25.602 830.752 27.3623C830.752 29.1791 832.029 30.3296 833.564 30.3296C835.076 30.3317 836.376 29.1227 836.376 27.3623ZM818.122 27.0454C818.122 25.1809 819.085 24.5503 820.361 24.5503C821.584 24.5503 822.469 25.3643 822.469 26.9923V33.5334H826.088V26.2054C826.088 22.7129 824.369 21.0046 821.635 21.0046C820.203 21.0046 818.772 21.8186 818.121 23.0537V21.2694H814.504V33.5334H818.122V27.0454ZM807.157 33.7439C803.721 33.7439 800.854 31.2228 800.854 27.3613C800.854 23.4976 803.717 21.0014 807.157 21.0014C810.596 21.0014 813.484 23.4976 813.484 27.3613C813.484 31.225 810.593 33.745 807.157 33.745V33.7439ZM807.157 30.1733C808.665 30.1733 809.917 29.0684 809.917 27.3623C809.917 25.7073 808.666 24.5775 807.157 24.5775C806.422 24.566 805.715 24.8567 805.201 25.3817C804.684 25.9093 804.403 26.624 804.423 27.3623C804.424 29.0706 805.673 30.1733 807.157 30.1733ZM794.368 24.5514C795.434 24.5514 796.372 25.3925 796.372 26.9933V33.5356H799.964V26.5701C799.964 22.867 798.164 21.0025 795.278 21.0025C794.421 21.0025 792.806 21.2629 791.634 23.1818C790.956 21.7633 789.655 21.0274 787.732 21.0274C786.368 21.0205 785.126 21.8116 784.556 23.0504V21.2705H780.936V33.5345H784.553V27.0454C784.553 25.1809 785.569 24.5503 786.662 24.5503C787.704 24.5503 788.639 25.3643 788.666 26.9141V33.5345H792.285V27.0454C792.285 25.2623 793.223 24.5525 794.368 24.5525V24.5514Z" fill="#333333"/>
<path d="M964.264 28.0698L964.282 28.0712L966.178 28.2694C966.311 28.2837 966.433 28.3487 966.52 28.4502L966.534 28.4675L966.516 28.4765C966.604 28.5883 966.643 28.7314 966.624 28.8727C966.21 32.1655 964.649 35.2071 962.216 37.4639C959.691 39.8055 956.375 41.1066 952.931 41.1066C951.259 41.1093 949.6 40.8013 948.041 40.1987L947.956 40.1655C947.828 40.1183 947.725 40.0212 947.671 39.8972L947.663 39.8773C947.61 39.7538 947.607 39.6147 947.654 39.4895L948.402 37.664C948.504 37.4059 948.791 37.2759 949.051 37.3674L949.068 37.3738C952.892 38.8506 957.224 38.0188 960.23 35.2305C962.143 33.4726 963.377 31.0976 963.715 28.5215C963.751 28.2555 963.982 28.062 964.246 28.069L964.264 28.0698ZM1009.03 20.3221C1010.65 20.3221 1011.92 20.8153 1012.72 21.7624L1012.75 21.7945V20.993C1012.76 20.7693 1012.93 20.5885 1013.15 20.5667L1013.17 20.5652H1015.33C1015.55 20.5806 1015.73 20.7552 1015.75 20.9751L1015.75 20.993V32.9657C1015.82 34.6539 1015.3 36.314 1014.28 37.662C1013.12 39.0759 1011.35 39.7918 1009.03 39.7918C1005.81 39.7918 1003.27 37.7521 1002.85 34.8388C1002.83 34.6285 1002.96 34.4329 1003.15 34.367L1003.17 34.3615L1005.28 33.8662C1005.29 33.8637 1005.3 33.8617 1005.31 33.86C1005.54 33.8261 1005.76 33.9861 1005.79 34.2174C1005.99 35.8516 1007.39 37.0708 1009.03 37.0316C1011.53 37.0316 1012.7 35.765 1012.72 33.1183L1012.72 33.0377V31.9886C1011.79 33.0362 1010.44 33.6151 1009.03 33.569C1005.45 33.569 1002.85 30.7864 1002.85 26.9591C1002.82 25.2371 1003.43 23.5639 1004.55 22.2627C1005.7 21.0035 1007.33 20.2969 1009.03 20.3221ZM944.124 34.8838L944.151 34.8835L944.178 34.8838C945.038 34.8936 945.731 35.5893 945.74 36.4465L945.74 36.4733C945.74 36.4822 945.74 36.4912 945.74 36.5C945.725 37.3777 945.002 38.0772 944.124 38.0623C943.246 38.0473 942.547 37.3238 942.562 36.4461C942.576 35.5863 943.271 34.8975 944.124 34.8838ZM1046.37 20.1555L1046.48 20.1563C1050.33 20.2096 1052.72 22.8915 1052.72 27.1842C1052.72 27.4113 1052.71 27.6383 1052.68 27.8641C1052.66 28.0718 1052.49 28.2319 1052.29 28.2418L1052.27 28.2423H1043.11C1043.17 30.1658 1044.76 31.6878 1046.68 31.6598C1048.17 31.7536 1049.53 30.8051 1049.96 29.3725C1050.04 29.1669 1050.26 29.0563 1050.47 29.1152L1050.49 29.1204L1052.31 29.7643C1052.42 29.7967 1052.5 29.8684 1052.54 29.9625L1052.55 29.9804C1052.6 30.0796 1052.61 30.1948 1052.58 30.3001C1051.73 32.8141 1049.33 34.4776 1046.68 34.3975C1044.94 34.4148 1043.27 33.7355 1042.04 32.5109C1040.69 31.0933 1039.97 29.1926 1040.04 27.2382C1040.04 22.8475 1043.2 20.2087 1046.28 20.1563L1046.37 20.1555ZM994.545 20.1555H994.549C998.471 20.1555 1000.91 22.8481 1000.91 27.1842C1000.91 27.4113 1000.9 27.6383 1000.87 27.8641C1000.85 28.0729 1000.68 28.2342 1000.47 28.242L1000.46 28.2423H991.299C991.355 30.1712 992.953 31.6953 994.883 31.6599C996.375 31.7553 997.735 30.8062 998.161 29.3725C998.237 29.1652 998.46 29.0538 998.671 29.115L998.688 29.1204L1000.52 29.7643C1000.62 29.7988 1000.71 29.8775 1000.75 29.9804C1000.8 30.0827 1000.8 30.1978 1000.75 30.3001C999.906 32.8125 997.515 34.4755 994.865 34.3975C993.123 34.4172 991.446 33.7377 990.209 32.5109C988.863 31.0922 988.145 29.1923 988.214 27.2382C988.214 22.8031 991.434 20.1555 994.545 20.1555ZM980.677 20.151C982.437 20.151 983.86 20.5788 984.914 21.4207C985.626 21.9885 986.154 22.7547 986.431 23.6226L986.432 23.6261C986.468 23.7757 986.38 23.9264 986.234 23.9698L986.22 23.9738L984.036 24.6942C983.939 24.7326 983.831 24.7326 983.734 24.6942C983.651 24.6556 983.589 24.5835 983.563 24.4961L983.551 24.4532C983.352 23.7421 982.702 22.6005 980.677 22.6005C979.236 22.6005 978.371 23.429 978.371 24.2305L978.372 24.2622C978.383 24.7834 978.666 25.4375 979.909 25.6862L979.947 25.6938L982.352 26.1441C985.008 26.679 986.54 28.123 986.57 30.1354L986.571 30.1965L986.562 30.1606L986.561 30.2216C986.522 32.2388 984.571 34.3615 980.978 34.3615C976.768 34.3615 975.116 31.9796 974.81 30.5748C974.79 30.4278 974.879 30.289 975.02 30.2458L975.035 30.2415L977.286 29.5391C977.326 29.5326 977.368 29.5326 977.408 29.5391C977.465 29.5381 977.522 29.5503 977.573 29.5745L977.592 29.5842C977.675 29.6238 977.736 29.698 977.759 29.7867C978.043 31.1376 979.263 31.9436 981.019 31.9436C982.653 31.9436 983.396 31.088 983.396 30.3136C983.396 29.5476 982.749 28.9798 981.633 28.7453L981.595 28.7376L979.069 28.2469C976.714 27.8011 975.246 26.3377 975.246 24.433C975.246 22.1142 977.736 20.151 980.677 20.151ZM1071.49 16.4003H1073.46C1073.69 16.4142 1073.87 16.6025 1073.88 16.8331L1073.88 16.8505V20.5472H1076.25C1076.48 20.5634 1076.66 20.7509 1076.67 20.9798L1076.67 20.9975V22.9607L1076.67 22.9778C1076.66 23.1979 1076.48 23.3766 1076.26 23.3879L1076.25 23.3884H1073.88V29.9579C1073.88 31.0475 1074.31 31.4978 1075.42 31.4978C1075.65 31.4939 1075.87 31.4768 1076.1 31.4466L1076.18 31.4347C1076.3 31.4139 1076.43 31.4486 1076.52 31.5293C1076.61 31.6082 1076.66 31.7166 1076.66 31.8319L1076.67 31.8535V33.7041C1076.67 33.8927 1076.54 34.0597 1076.36 34.1139C1075.85 34.259 1075.31 34.3319 1074.77 34.3306L1074.7 34.33C1072.35 34.33 1070.88 32.8339 1070.85 30.4142L1070.85 30.3406V23.4155H1068.8C1068.58 23.4023 1068.4 23.227 1068.38 23.0057L1068.38 22.9877V21.0155C1068.38 20.7828 1068.56 20.5892 1068.79 20.5666L1068.8 20.5652L1069.35 20.5652L1069.41 20.5641C1070.06 20.5457 1071.04 20.2851 1071.06 18.8499L1071.06 18.8046V16.8505C1071.06 16.6178 1071.24 16.4242 1071.47 16.4016L1071.49 16.4003ZM1033.24 20.1535L1033.3 20.1555H1033.29C1035.61 20.1555 1037.95 21.7707 1038 25.2981L1038 25.4056V33.7446C1037.99 33.9684 1037.81 34.1491 1037.59 34.171L1037.57 34.1724H1035.42C1035.19 34.1592 1035.01 33.984 1034.99 33.7627L1034.99 33.7446V25.6758L1034.99 25.6137C1034.98 24.5856 1034.63 22.9336 1032.51 22.9336C1030.95 22.9336 1029.83 24.1517 1029.81 25.9236L1029.81 25.9775V33.7446C1029.8 33.9684 1029.63 34.1491 1029.4 34.171L1029.39 34.1724H1027.2C1026.98 34.1592 1026.8 33.984 1026.78 33.7627L1026.78 33.7446V25.6758L1026.78 25.6137C1026.77 24.5856 1026.42 22.9336 1024.3 22.9336C1022.67 22.9336 1021.57 24.1428 1021.55 25.9496L1021.55 26.0045V33.7446C1021.54 33.9684 1021.36 34.1491 1021.14 34.171L1021.12 34.1724H1018.97C1018.75 34.1571 1018.57 33.9823 1018.55 33.7626L1018.55 33.7446V20.966C1018.56 20.7439 1018.73 20.5637 1018.95 20.5398L1018.97 20.5382H1021.04C1021.27 20.5514 1021.45 20.7266 1021.47 20.9479L1021.47 20.966V21.736C1022.4 20.7122 1023.73 20.137 1025.11 20.1555C1026.72 20.1085 1028.22 20.9569 1029 22.3573C1029.93 20.9309 1031.54 20.0964 1033.24 20.1535ZM1065.54 21.7449C1066.37 22.8335 1066.79 24.1724 1066.75 25.537L1066.75 25.5947V33.7446C1066.73 33.9668 1066.56 34.147 1066.34 34.1708L1066.33 34.1724H1064.14C1063.92 34.1592 1063.74 33.984 1063.72 33.7627L1063.72 33.7446V26.0315C1063.72 24.0143 1062.77 22.9877 1060.97 22.9877C1060.17 22.962 1059.41 23.3164 1058.92 23.9422C1058.44 24.6292 1058.2 25.4491 1058.22 26.2841L1058.22 26.3332V33.7446C1058.21 33.9684 1058.03 34.1491 1057.81 34.171L1057.79 34.1724H1055.62C1055.39 34.1592 1055.21 33.984 1055.19 33.7627L1055.19 33.7446V20.9569C1055.2 20.7332 1055.38 20.5525 1055.6 20.5306L1055.62 20.5292H1057.75C1057.97 20.5445 1058.14 20.7193 1058.16 20.939L1058.16 20.9569V21.8575C1059.08 20.7507 1060.45 20.1235 1061.88 20.1555C1063.28 20.0958 1064.63 20.6819 1065.54 21.7449ZM940.04 28.6161H955.543C955.828 28.6185 956.058 28.8466 956.065 29.1293L956.065 29.1474V31.0881C956.067 31.373 955.843 31.607 955.561 31.6189L955.543 31.6194H940.04C939.755 31.617 939.525 31.3888 939.518 31.1062V31.088V29.1474V29.1292C939.525 28.8528 939.745 28.6284 940.021 28.6166L940.04 28.6161ZM1009.41 23.0147C1007.28 23.0147 1005.93 24.5276 1005.93 26.9591C1005.93 29.3905 1007.27 30.8989 1009.41 30.8989C1011.45 30.8989 1012.83 29.314 1012.83 26.9591C1012.83 24.5996 1011.45 23.0147 1009.41 23.0147ZM991.394 25.6455L991.389 25.6938H997.796C997.64 23.9821 996.434 22.9147 994.627 22.8935L994.572 22.8932C992.98 22.8673 991.624 24.0316 991.401 25.5979L991.394 25.6455ZM1043.22 25.6455L1043.22 25.6938H1049.63C1049.47 23.9821 1048.26 22.9147 1046.46 22.8935L1046.4 22.8932C1044.81 22.8673 1043.45 24.0316 1043.23 25.5979L1043.22 25.6455ZM957.483 13.8067C957.618 13.8551 957.726 13.9558 957.785 14.0859C957.839 14.2172 957.839 14.3643 957.785 14.4956L957.11 16.2967C957.016 16.5638 956.724 16.7047 956.457 16.6119C952.918 15.3771 948.992 16.0787 946.1 18.4624C944.298 19.9709 943.019 22.0101 942.444 24.2889C942.385 24.5191 942.178 24.68 941.94 24.6807H941.823L939.968 24.2349C939.829 24.2024 939.711 24.1145 939.639 23.9918H939.63C939.555 23.8691 939.534 23.7209 939.572 23.582C940.308 20.6649 941.957 18.0591 944.277 16.1436C947.966 13.1062 952.976 12.2198 957.483 13.8067ZM950.617 21.5874H966.119C966.397 21.5896 966.624 21.807 966.641 22.0822L966.642 22.1006V24.0413C966.644 24.3263 966.42 24.5603 966.138 24.5722L966.119 24.5727H950.617C950.334 24.5678 950.106 24.3405 950.099 24.0597L950.099 24.0413V22.1186C950.096 21.8356 950.318 21.6024 950.598 21.588L950.617 21.5874ZM961.379 15.6663L961.405 15.666L961.432 15.6663C962.293 15.6761 962.985 16.3718 962.995 17.2289L962.995 17.2557C962.995 17.2647 962.995 17.2737 962.994 17.2825C962.979 18.1602 962.256 18.8596 961.378 18.8447C960.5 18.8298 959.801 18.1062 959.816 17.2286C959.831 16.3687 960.525 15.68 961.379 15.6663Z" fill="#4FB58B"/>
<path d="M1126.52 35.3274C1126.36 35.2324 1126.22 34.9995 1126.22 34.8104V19.3275C1126.22 19.1381 1126.36 18.9056 1126.52 18.8104L1140.1 11.0713C1140.27 10.9762 1140.54 10.9762 1140.7 11.0713L1154.28 18.8112C1154.44 18.9063 1154.58 19.1388 1154.58 19.3282V34.8111C1154.58 35 1154.44 35.2327 1154.28 35.3281L1140.7 43.0674C1140.54 43.1624 1140.27 43.1624 1140.1 43.0674L1126.52 35.3274ZM1167.34 20.8684V27.1484H1170.02C1171.97 27.1484 1172.84 26.3544 1172.84 25.0551V22.9617C1172.84 21.6626 1171.97 20.8684 1170.02 20.8684H1167.34ZM1167.34 29.1454V34.7517C1167.34 35.0884 1167.25 35.2327 1166.95 35.2327H1165.62C1165.34 35.2327 1165.23 35.0884 1165.23 34.7517V19.3528C1165.23 19.0159 1165.34 18.8714 1165.62 18.8714H1170.02C1173.75 18.8714 1174.94 20.6038 1174.94 22.5768V25.4402C1174.94 27.413 1173.75 29.1454 1170.02 29.1454H1167.34ZM1179.82 20.8684V26.7634H1182.51C1184.46 26.7634 1185.32 25.9934 1185.32 24.6701V22.9617C1185.32 21.6626 1184.46 20.8684 1182.51 20.8684H1179.82ZM1179.82 28.7605V34.7517C1179.82 35.0884 1179.74 35.2327 1179.43 35.2327H1178.11C1177.83 35.2327 1177.72 35.0884 1177.72 34.7517V19.3528C1177.72 19.0159 1177.83 18.8714 1178.11 18.8714H1182.51C1186.23 18.8714 1187.42 20.6038 1187.42 22.5768V25.0791C1187.42 26.5468 1186.75 27.8702 1184.89 28.4478L1187.49 34.7517C1187.6 35.0404 1187.4 35.2327 1187.1 35.2327H1185.8C1185.5 35.2327 1185.45 35.0404 1185.32 34.7517L1182.88 28.7605H1179.82ZM1198.81 22.7693C1198.81 21.47 1197.9 20.6759 1195.84 20.6759C1193.8 20.6759 1192.89 21.47 1192.89 22.7693V31.3348C1192.89 32.6343 1193.8 33.4281 1195.84 33.4281C1197.9 33.4281 1198.81 32.6343 1198.81 31.3348V22.7693ZM1190.65 22.3843C1190.65 20.4113 1191.93 18.679 1195.84 18.679C1199.77 18.679 1201.05 20.4113 1201.05 22.3843V31.72C1201.05 33.693 1199.77 35.4254 1195.84 35.4254C1191.93 35.4254 1190.65 33.693 1190.65 31.72V22.3843ZM1213.12 18.8714C1213.42 18.8714 1213.55 18.9918 1213.55 19.3285V20.4113C1213.55 20.7481 1213.42 20.8684 1213.12 20.8684H1209.46V34.7517C1209.46 35.0884 1209.35 35.2327 1209.05 35.2327H1207.63C1207.34 35.2327 1207.22 35.0884 1207.22 34.7517V20.8684H1203.56C1203.24 20.8684 1203.13 20.7481 1203.13 20.4113V19.3285C1203.13 18.9918 1203.24 18.8714 1203.56 18.8714H1213.12ZM1223.77 22.7693C1223.77 21.47 1222.86 20.6759 1220.8 20.6759C1218.76 20.6759 1217.85 21.47 1217.85 22.7693V31.3348C1217.85 32.6343 1218.76 33.4281 1220.8 33.4281C1222.86 33.4281 1223.77 32.6343 1223.77 31.3348V22.7693ZM1215.61 22.3843C1215.61 20.4113 1216.89 18.679 1220.8 18.679C1224.73 18.679 1226.01 20.4113 1226.01 22.3843V31.72C1226.01 33.693 1224.73 35.4254 1220.8 35.4254C1216.89 35.4254 1215.61 33.693 1215.61 31.72V22.3843ZM1239.24 34.7756C1239.24 35.0884 1239.15 35.2327 1238.85 35.2327H1237.66C1237.44 35.2327 1237.36 35.1605 1237.27 35.0162L1232.18 25.1034C1231.7 24.2129 1231.44 23.467 1231.4 23.3708V34.7756C1231.4 35.0884 1231.29 35.2327 1231.01 35.2327H1229.8C1229.52 35.2327 1229.41 35.0884 1229.41 34.7756V19.3285C1229.41 19.0159 1229.52 18.8714 1229.8 18.8714H1231.01C1231.18 18.8714 1231.29 18.9435 1231.36 19.0639L1236.58 29.1936C1236.88 29.771 1237.25 30.7333 1237.25 30.7333V19.3285C1237.25 19.0159 1237.38 18.8714 1237.66 18.8714H1238.85C1239.15 18.8714 1239.24 19.0159 1239.24 19.3285V34.7756ZM1242.97 35.2327C1242.68 35.2327 1242.58 35.0884 1242.58 34.7517V19.3528C1242.58 19.0159 1242.68 18.8714 1242.97 18.8714H1250.37C1250.65 18.8714 1250.78 18.9918 1250.78 19.3285V20.4113C1250.78 20.7481 1250.65 20.8684 1250.37 20.8684H1244.68V25.7288H1249.98C1250.28 25.7288 1250.41 25.8491 1250.41 26.1859V27.2206C1250.41 27.5334 1250.28 27.6777 1249.98 27.6777H1244.68V33.2358H1250.61C1250.89 33.2358 1251.02 33.3321 1251.02 33.6688V34.7756C1251.02 35.1126 1250.89 35.2327 1250.61 35.2327H1242.97ZM1262.96 18.8714C1263.24 18.8714 1263.37 18.9918 1263.37 19.3285V20.4113C1263.37 20.7481 1263.24 20.8684 1262.96 20.8684H1259.49V34.7517C1259.49 35.0884 1259.38 35.2327 1259.1 35.2327H1257.76C1257.48 35.2327 1257.37 35.0884 1257.37 34.7517V20.8684H1253.91C1253.6 20.8684 1253.49 20.7481 1253.49 20.4113V19.3285C1253.49 18.9918 1253.6 18.8714 1253.91 18.8714H1262.96Z" fill="#E15B29"/>
</svg>
