<svg width="76" height="80" viewBox="0 0 76 80" fill="none" xmlns="http://www.w3.org/2000/svg">
<rect width="76" height="80" fill="none"/>
<path d="M0 0H76V38V61L66.5 70.5L57 80H38H0V0Z" fill="#D3FCFF"/>
<path fill-rule="evenodd" clip-rule="evenodd" d="M38.3755 23.838L52.175 30.7003C52.5125 30.8508 52.663 31.1883 52.663 31.5258C52.2875 37.6753 50.7125 42.6253 48.2375 46.6753C45.7625 50.7253 42.4253 53.8008 38.4498 56.1631C38.1503 56.3501 37.8128 56.3136 37.5498 56.1631C33.6121 53.8006 30.2375 50.7253 27.7621 46.6753C25.3251 42.5875 23.7499 37.6375 23.3745 31.4876C23.3365 31.1121 23.5615 30.8126 23.8624 30.6621L37.6242 23.8376C37.8492 23.6871 38.1501 23.7251 38.3751 23.8376L38.3755 23.838ZM39.388 44.5002H36.5755C36.463 44.5002 36.3884 44.4622 36.2759 44.4622C35.8259 44.3117 35.6009 43.8252 35.7514 43.3752L36.6514 40.8257C36.2014 40.6007 35.7894 40.2252 35.5264 39.8132C35.2269 39.3632 35.0384 38.8007 35.0384 38.2382C35.0384 37.4127 35.3759 36.7011 35.9005 36.1752C36.425 35.6507 37.138 35.3132 37.9634 35.3132C38.7509 35.3132 39.5005 35.6507 40.0264 36.1752C40.5509 36.6997 40.8884 37.4127 40.8884 38.2382C40.8884 38.8007 40.7014 39.3632 40.4384 39.8132C40.1755 40.2252 39.7634 40.6007 39.3134 40.8257L40.1755 43.3386C40.2134 43.4511 40.25 43.5636 40.25 43.6761C40.25 44.1247 39.8745 44.5002 39.388 44.5002V44.5002Z" fill="#00E1F0"/>
</svg>
