<svg width="76" height="80" viewBox="0 0 76 80" fill="none" xmlns="http://www.w3.org/2000/svg">
<rect width="76" height="80" fill="none"/>
<path d="M0 0H76V38V61L66.5 70.5L57 80H38H0V0Z" fill="#FFEDE8"/>
<path d="M49.7204 38.6408H39.3204C38.8001 38.6408 38.4001 38.2408 38.4001 37.7205V27.3205C38.4001 26.8002 37.9594 26.3611 37.4407 26.4002C33.8407 26.6799 30.7203 28.5205 28.6407 31.241C27.4407 30.5613 26.0407 30.1613 24.5611 30.1613C19.8407 30.1613 16.0407 34.0019 16.0407 38.6817C16.0407 43.3615 19.8814 47.2021 24.5611 47.2021C26.0814 47.2021 27.4814 46.7615 28.7203 46.0818C30.961 49.0021 34.4407 50.9226 38.2795 50.9614C44.8387 51.0411 50.1999 46.041 50.6795 39.641C50.7202 39.0801 50.2795 38.641 49.7202 38.641L49.7204 38.6408ZM18.1596 38.6799C18.1596 35.1596 21.0002 32.3207 24.5188 32.3207C28.0391 32.3207 30.878 35.1613 30.878 38.6799C30.878 42.2002 28.0374 45.0391 24.5188 45.0391C21 45.0406 18.1596 42.1594 18.1596 38.6799V38.6799Z" fill="#FF7F5C"/>
<path d="M42.6796 23.0408C42.1593 23.0002 41.7202 23.4408 41.7202 23.9611V34.3611C41.7202 34.8815 42.1202 35.2815 42.6406 35.2815H53.0406C53.5609 35.2815 53.9999 34.8408 53.9609 34.3221C53.5202 28.3205 48.7201 23.5205 42.6797 23.0409L42.6796 23.0408Z" fill="#FF7F5C"/>
<path d="M24.8796 37.8796H24.1999C23.9999 37.8796 23.8406 37.7999 23.6796 37.639C23.5593 37.4796 23.4796 37.3187 23.5202 37.1187C23.5609 36.7593 23.8796 36.5187 24.2406 36.5187H24.9999C25.1999 36.5187 25.3593 36.639 25.3999 36.839C25.4405 36.9984 25.5593 37.1187 25.7593 37.1187H26.639C26.7593 37.1187 26.839 37.078 26.9187 36.9984C26.9983 36.9187 26.9983 36.839 26.9983 36.7187C26.9187 35.7983 26.1983 35.078 25.3187 34.9593V34.239C25.3187 34.039 25.1593 33.8796 24.9593 33.8796H24.0796C23.8796 33.8796 23.7202 34.039 23.7202 34.239V34.9999C22.5999 35.2405 21.7999 36.2796 21.9202 37.4405C22.0405 38.5999 23.0406 39.4812 24.2406 39.4812H24.7999C24.9999 39.4812 25.1593 39.5609 25.3202 39.7218C25.4405 39.8812 25.5202 40.0421 25.4796 40.2421C25.439 40.6015 25.1202 40.8421 24.7593 40.8421H23.9999C23.7999 40.8421 23.6406 40.7218 23.5999 40.5218C23.5593 40.3624 23.4406 40.2421 23.2406 40.2421H22.3609C22.2406 40.2421 22.1609 40.2828 22.0812 40.3624C22.0015 40.4421 22.0015 40.5218 22.0015 40.6421C22.0812 41.5624 22.8015 42.2828 23.6812 42.4015V43.1218C23.6812 43.3218 23.8406 43.4812 24.0406 43.4812H24.9202C25.1202 43.4812 25.2796 43.3218 25.2796 43.1218V42.3624C26.239 42.1218 26.9593 41.3624 27.0796 40.4031C27.1593 39.7624 26.9202 39.1234 26.5203 38.6437C26.1203 38.1594 25.5203 37.8796 24.8796 37.8796V37.8796Z" fill="#FF7F5C"/>
</svg>
